# xmcd
#
# Track frame offsets:
# 150
# 15826
# 29393
# 40598
# 52454
# 65121
# 80200
# 91072
# 105413
# 116791
# 132186
# 148988
#
# Disc length: 2204 seconds
#
#
# Revision: 0
# Processed by: cddbd v1.5.2PL0 Copyright (c) Steve Scherf et al.
# Submitted via: FreeRIP 2.96 
#
DISCID=a7089a0c
DTITLE=Gypsy Carns - The Watchman ('07)
DYEAR=2007
DGENRE=Christian Rock
TTITLE0=The Battle Rages On
TTITLE1=Sound The Trumpet
TTITLE2=Under A Rainbow Sky
TTITLE3=Jerusalem In Ruins
TTITLE4=Sanctify'd News
TTITLE5=Wailin' Wall
TTITLE6=End Time Generation
TTITLE7=Searchin'
TTITLE8=End Of The Age
TTITLE9=Pray For Love
TTITLE10=12 Rainbows
TTITLE11=Save Jerusalem
EXTD=
EXTT0=
EXTT1=
EXTT2=
EXTT3=
EXTT4=
EXTT5=
EXTT6=
EXTT7=
EXTT8=
EXTT9=
EXTT10=
EXTT11=
PLAYORDER=
